<svg data-v-fde0c5aa="" xmlns="http://www.w3.org/2000/svg" viewBox="0 0 300 300" class="iconAbove"><!----><defs data-v-fde0c5aa=""><!----></defs><rect data-v-fde0c5aa="" fill="#393939" x="0" y="0" width="300px" height="300px" class="logo-background-square"></rect><defs data-v-fde0c5aa=""><!----></defs><g data-v-fde0c5aa="" id="ce8d1e4b-9c0e-445e-9018-02be0b6abe28" fill="#FFEDED" transform="matrix(5.809605905682297,0,0,5.809605905682297,66.54500894522224,185.4046592845638)"><path d="M8.41 1.26L8.41 1.26Q8.48 1.25 8.61 1.25L8.61 1.25L8.61 1.25Q8.85 1.25 8.97 1.34L8.97 1.34L8.97 1.34Q9.09 1.43 9.09 1.57L9.09 1.57L9.09 1.57Q9.09 1.78 8.86 1.98L8.86 1.98L8.86 1.98Q8.64 2.18 8.32 2.24L8.32 2.24L8.26 2.31L8.26 2.31Q8.13 2.44 7.97 2.74L7.97 2.74L7.97 2.74Q7.70 3.23 7.43 4.13L7.43 4.13L7.43 4.13Q7.08 5.39 6.82 7.53L6.82 7.53L6.82 7.53Q6.65 8.93 6.51 10.65L6.51 10.65L6.51 10.65Q6.50 10.75 6.50 10.96L6.50 10.96L6.50 10.96Q6.47 11.41 6.41 11.70L6.41 11.70L6.41 11.70Q6.36 11.98 6.20 12.18L6.20 12.18L6.20 12.18Q6.08 12.32 5.76 12.47L5.76 12.47L5.76 12.47Q5.45 12.61 5.18 12.61L5.18 12.61L5.18 12.61Q4.83 12.61 4.76 12.33L4.76 12.33L4.76 12.33Q4.45 11.30 4.02 9.31L4.02 9.31L4.02 9.31Q3.95 9.00 3.81 8.40L3.81 8.40L3.81 8.40Q3.67 7.80 3.56 7.35L3.56 7.35L3.18 5.91L3.18 5.91Q3.09 6.79 2.97 7.69L2.97 7.69L2.97 7.69Q2.74 9.30 2.48 10.37L2.48 10.37L2.48 10.37Q2.23 11.45 1.65 12.31L1.65 12.31L1.65 12.31Q1.50 12.54 1.23 12.69L1.23 12.69L1.23 12.69Q0.95 12.84 0.67 12.84L0.67 12.84L0.67 12.84Q0.48 12.84 0.31 12.76L0.31 12.76L0.31 12.76Q0.14 12.68 0.14 12.54L0.14 12.54L0.14 12.54Q0.14 12.45 0.20 12.38L0.20 12.38L0.20 12.38Q0.71 11.45 0.97 10.38L0.97 10.38L0.97 10.38Q1.23 9.31 1.46 7.73L1.46 7.73L1.46 7.73Q1.78 5.36 1.78 3.36L1.78 3.36L1.78 3.36Q1.78 2.55 1.75 2.14L1.75 2.14L1.75 2.14Q1.74 1.88 2.07 1.67L2.07 1.67L2.07 1.67Q2.41 1.47 2.77 1.47L2.77 1.47L2.77 1.47Q3.05 1.47 3.19 1.61L3.19 1.61L3.19 1.61Q3.51 1.93 3.69 2.33L3.69 2.33L3.69 2.33Q3.86 2.73 4.13 3.51L4.13 3.51L4.13 3.51Q4.48 4.52 5.01 6.57L5.01 6.57L5.01 6.57Q5.11 6.92 5.28 7.62L5.28 7.62L5.28 7.62Q5.33 7.18 5.47 6.29L5.47 6.29L5.47 6.29Q5.70 4.94 5.96 3.99L5.96 3.99L5.96 3.99Q6.22 3.04 6.82 2.22L6.82 2.22L6.82 2.22Q7.42 1.40 8.41 1.26L8.41 1.26ZM14.04 7.71L14.04 7.71Q14.04 6.23 12.31 5.38L12.31 5.38L12.31 5.38Q11.87 5.74 11.44 6.34L11.44 6.34L11.44 6.34Q10.91 7.11 10.56 8.06L10.56 8.06L10.56 8.06Q10.42 8.44 10.29 9.09L10.29 9.09L10.29 9.09Q10.16 9.74 10.16 10.30L10.16 10.30L10.16 10.30Q10.16 10.88 10.32 11.22L10.32 11.22L10.32 11.22Q10.49 11.56 10.85 11.56L10.85 11.56L10.85 11.56Q11.14 11.56 11.54 11.33L11.54 11.33L11.54 11.33Q12.61 10.70 13.33 9.76L13.33 9.76L13.33 9.76Q14.04 8.82 14.04 7.71L14.04 7.71ZM14.43 5.18L14.43 5.18Q14.94 5.66 15.21 6.26L15.21 6.26L15.21 6.26Q15.48 6.86 15.48 7.53L15.48 7.53L15.48 7.53Q15.48 8.50 14.92 9.49L14.92 9.49L14.92 9.49Q14.55 10.16 13.82 10.91L13.82 10.91L13.82 10.91Q13.09 11.65 12.20 12.16L12.20 12.16L12.20 12.16Q11.31 12.67 10.50 12.67L10.50 12.67L10.50 12.67Q10.00 12.67 9.55 12.45L9.55 12.45L9.55 12.45Q8.60 11.93 8.60 10.58L8.60 10.58L8.60 10.58Q8.60 9.62 9.03 8.46L9.03 8.46L9.03 8.46Q9.46 7.31 9.95 6.51L9.95 6.51L9.95 6.51Q11.14 4.62 12.46 4.13L12.46 4.13L12.46 4.13Q12.82 3.99 13.24 3.99L13.24 3.99L13.24 3.99Q13.73 3.99 14.07 4.23L14.07 4.23L14.07 4.23Q14.41 4.48 14.46 5.00L14.46 5.00L14.46 5.05L14.46 5.05Q14.46 5.10 14.43 5.18L14.43 5.18ZM21.64 4.77L21.64 4.77Q21.74 4.61 22.13 4.42L22.13 4.42L22.13 4.42Q22.51 4.23 22.81 4.23L22.81 4.23L22.81 4.23Q23.23 4.23 23.17 4.62L23.17 4.62L23.17 4.62Q23.17 4.66 23.16 4.75L23.16 4.75L23.16 4.75Q23.14 4.83 23.13 4.87L23.13 4.87L23.13 4.90L23.13 4.90Q22.99 5.84 22.81 7.15L22.81 7.15L22.81 7.15Q22.64 8.46 22.54 9.20L22.54 9.20L22.18 11.89L22.18 11.89Q22.13 12.17 21.78 12.36L21.78 12.36L21.78 12.36Q21.42 12.56 21.06 12.56L21.06 12.56L21.06 12.56Q20.83 12.56 20.70 12.46L20.70 12.46L20.70 12.46Q20.57 12.36 20.59 12.18L20.59 12.18L20.59 12.18Q20.75 10.98 21.08 8.57L21.08 8.57L20.94 8.81L20.94 8.81Q20.58 9.42 20.40 9.70L20.40 9.70L20.40 9.70Q19.77 10.68 19.06 11.35L19.06 11.35L19.06 11.35Q18.35 12.03 17.44 12.25L17.44 12.25L17.44 12.25Q17.09 12.33 16.81 12.33L16.81 12.33L16.81 12.33Q15.50 12.33 15.50 10.54L15.50 10.54L15.50 10.54Q15.50 9.70 15.76 8.63L15.76 8.63L15.76 8.63Q16.03 7.56 16.37 6.62L16.37 6.62L16.37 6.62Q16.72 5.68 16.97 5.19L16.97 5.19L16.97 5.19Q17.07 5.00 17.41 4.85L17.41 4.85L17.41 4.85Q17.75 4.70 18.07 4.70L18.07 4.70L18.07 4.70Q18.27 4.70 18.39 4.77L18.39 4.77L18.39 4.77Q18.51 4.84 18.51 4.97L18.51 4.97L18.51 4.97Q18.51 5.03 18.47 5.14L18.47 5.14L18.47 5.14Q17.53 7.20 17.25 8.88L17.25 8.88L17.18 9.25L17.18 9.25Q17.07 9.84 17.07 10.15L17.07 10.15L17.07 10.15Q17.07 10.30 17.08 10.37L17.08 10.37L17.08 10.37Q17.25 11.09 17.63 11.05L17.63 11.05L17.63 11.05Q17.78 11.03 18.00 10.78L18.00 10.78L18.00 10.78Q18.21 10.53 18.27 10.47L18.27 10.47L18.27 10.47Q18.96 9.67 19.52 8.73L19.52 8.73L19.52 8.73Q20.08 7.78 20.82 6.36L20.82 6.36L20.82 6.36Q21.20 5.59 21.64 4.77L21.64 4.77ZM27.03 3.88L27.03 3.88Q27.44 3.71 27.78 3.71L27.78 3.71L27.78 3.71Q28.14 3.71 28.36 3.90L28.36 3.90L28.36 3.90Q28.59 4.09 28.59 4.51L28.59 4.51L28.59 4.51Q28.59 4.91 28.46 5.39L28.46 5.39L28.46 5.39Q28.34 5.87 28.11 6.51L28.11 6.51L27.92 7.10L27.92 7.10Q27.83 7.36 27.48 7.55L27.48 7.55L27.48 7.55Q27.13 7.73 26.81 7.73L26.81 7.73L26.81 7.73Q26.60 7.73 26.49 7.64L26.49 7.64L26.49 7.64Q26.39 7.55 26.45 7.36L26.45 7.36L26.45 7.36Q26.70 6.58 26.95 5.63L26.95 5.63L26.95 5.63Q27.01 5.19 27.03 5.05L27.03 5.05L26.98 5.11L26.98 5.11Q25.90 6.03 25.00 7.43L25.00 7.43L25.00 7.43Q24.60 9.66 24.50 11.90L24.50 11.90L24.50 11.90Q24.49 12.17 24.14 12.37L24.14 12.37L24.14 12.37Q23.80 12.57 23.44 12.57L23.44 12.57L23.44 12.57Q23.23 12.57 23.09 12.47L23.09 12.47L23.09 12.47Q22.95 12.38 22.96 12.18L22.96 12.18L22.96 12.18Q23.07 10.16 23.39 8.26L23.39 8.26L23.39 8.26Q23.25 8.16 23.25 8.04L23.25 8.04L23.25 8.04Q23.25 7.95 23.31 7.85L23.31 7.85L23.52 7.50L23.52 7.50Q23.83 5.89 24.28 4.27L24.28 4.27L24.28 4.27Q24.35 4.02 24.72 3.83L24.72 3.83L24.72 3.83Q25.09 3.64 25.42 3.64L25.42 3.64L25.42 3.64Q25.63 3.64 25.75 3.72L25.75 3.72L25.75 3.72Q25.86 3.81 25.80 3.98L25.80 3.98L25.80 3.98Q25.58 4.76 25.52 5.01L25.52 5.01L25.52 5.01Q26.36 4.17 27.03 3.88L27.03 3.88Z"></path></g><defs data-v-fde0c5aa=""><!----></defs><g data-v-fde0c5aa="" id="e18ce3f7-efcf-41f6-a602-43f75421bb5c" stroke="none" fill="#D4CCCC" transform="matrix(2.2440702101710883,0,0,2.2440702101710883,78.18975327452517,35.51186118474192)"><path d="M12.33 31.85l-2.09 3.49a1.1 1.1 0 0 0 .94 1.66h2a10.15 10.15 0 0 1-.18 4.72 10.66 10.66 0 0 1-1 2.25 7.86 7.86 0 0 0-1 2.9c-.27 2.11.46 4.38 2.19 6.72a1 1 0 1 0 1.61-1.18c-1.41-1.92-2-3.69-1.81-5.28a6 6 0 0 1 .83-2.21A12.48 12.48 0 0 0 15 42.28a12 12 0 0 0 .21-5.28h1.62a1.1 1.1 0 0 0 .94-1.67l-2.08-3.47a11.81 11.81 0 0 0 8.08-5.71 11.36 11.36 0 0 0 6.57 3.7l-2.09 3.49a1.1 1.1 0 0 0 .93 1.66H31v7.22l-.15-.16a4 4 0 1 0-5.66 5.66c.09.09.21.19.33.29H20v6h2v8h20V54h2v-6h-5.52c.12-.1.23-.2.33-.29a4 4 0 0 0-5.66-5.66l-.15.16V35h1.82a1.1 1.1 0 0 0 .94-1.67l-2.09-3.49a11.36 11.36 0 0 0 6.57-3.7 11.81 11.81 0 0 0 8.08 5.71l-2.08 3.47a1.1 1.1 0 0 0 .94 1.68h1.62a12 12 0 0 0 .2 5.28 12.48 12.48 0 0 0 1.14 2.64 6 6 0 0 1 .86 2.21c.21 1.59-.41 3.36-1.81 5.28a1 1 0 1 0 1.61 1.18c1.73-2.34 2.47-4.59 2.2-6.72A7.86 7.86 0 0 0 51.94 44a10.66 10.66 0 0 1-1-2.25 10.15 10.15 0 0 1-.12-4.75h2a1.1 1.1 0 0 0 .94-1.67l-2.09-3.49C57.5 30.89 62 25.06 62 18c0-7.72-5.38-14-12-14a11.06 11.06 0 0 0-8.24 3.85A11.53 11.53 0 0 0 32 2a11.57 11.57 0 0 0-9.74 5.86A11.06 11.06 0 0 0 14 4C7.38 4 2 10.28 2 18c0 7.06 4.5 12.89 10.33 13.85zM31 50h2v2h-2zm-4.39-6.53a2 2 0 0 1 2.83 0A6.93 6.93 0 0 1 31 47.11a1 1 0 0 1-.16.77c-.14.14-.74.22-1.79-.15a7.38 7.38 0 0 1-2.45-1.44 2 2 0 0 1 .01-2.82zM22 50h7v2h-7zm2 10v-6h5v6zm7 0v-6h2v6zm9 0h-5v-6h5zm2-8h-7v-2h7zm-7.44-8.53a2 2 0 0 1 2.83 2.83 7.38 7.38 0 0 1-2.45 1.44c-1 .37-1.64.29-1.79.15a1 1 0 0 1-.16-.77 6.93 6.93 0 0 1 1.57-3.65zM12.77 35L14 32.94 15.23 35zM33 33h-2.23L32 30.94 33.23 33zm15.77 2L50 32.94 51.23 35zM50 6c5.51 0 10 5.38 10 12s-4.49 12-10 12c-3.45 0-6.61-2.11-8.44-5.57A15.47 15.47 0 0 0 44 16a16 16 0 0 0-1.26-6.23A9.25 9.25 0 0 1 50 6zM32 4c3.71 0 7.1 2.45 8.85 6.4A14 14 0 0 1 42 16c0 6.62-4.49 12-10 12s-10-5.38-10-12S26.49 4 32 4zM14 6a9.25 9.25 0 0 1 7.27 3.78A15.81 15.81 0 0 0 20 16a15.47 15.47 0 0 0 2.44 8.43C20.61 27.89 17.45 30 14 30 8.49 30 4 24.62 4 18S8.49 6 14 6z"></path></g><!----></svg>